<svg width="100" height="100" viewBox="0 0 100 100" fill="none" xmlns="http://www.w3.org/2000/svg">
<g filter="url(#filter0_d_61_37)">
<circle cx="50" cy="45" r="32.5" stroke="#AA0000" stroke-width="5"/>
<path d="M30.5557 25.5557L69.4446 64.4446M69.4446 25.5557L30.5557 64.4446" stroke="#AA0000" stroke-width="10"/>
</g>
<path d="M16.0889 97V83.605H18.5399V97H16.0889ZM21.2983 97V89.799C21.2983 89.4063 21.2857 89.0073 21.2603 88.602C21.235 88.1967 21.197 87.7977 21.1463 87.405H23.4453L23.6353 89.305H23.4073C23.7113 88.6337 24.161 88.1207 24.7563 87.766C25.3517 87.3987 26.042 87.215 26.8273 87.215C27.9547 87.215 28.8033 87.5317 29.3733 88.165C29.9433 88.7983 30.2283 89.7863 30.2283 91.129V97H27.8533V91.243C27.8533 90.4703 27.7013 89.9193 27.3973 89.59C27.106 89.248 26.6627 89.077 26.0673 89.077C25.3327 89.077 24.75 89.305 24.3193 89.761C23.8887 90.217 23.6733 90.825 23.6733 91.585V97H21.2983ZM35.4658 97L31.3238 87.405H33.8508L36.8528 94.91H36.2638L39.3418 87.405H41.7168L37.5558 97H35.4658ZM46.5082 97.19C45.6722 97.19 44.9376 96.9937 44.3042 96.601C43.6709 96.1957 43.1769 95.6193 42.8222 94.872C42.4676 94.1247 42.2902 93.2317 42.2902 92.193C42.2902 91.1543 42.4676 90.2677 42.8222 89.533C43.1769 88.7857 43.6709 88.2157 44.3042 87.823C44.9376 87.4177 45.6722 87.215 46.5082 87.215C47.3189 87.215 48.0282 87.4177 48.6362 87.823C49.2569 88.2157 49.6686 88.7477 49.8712 89.419H49.6622L49.8712 87.405H52.1512C52.1132 87.7977 52.0752 88.1967 52.0372 88.602C52.0119 89.0073 51.9992 89.4063 51.9992 89.799V97H49.6432L49.6242 95.024H49.8522C49.6496 95.6827 49.2379 96.2083 48.6172 96.601C47.9966 96.9937 47.2936 97.19 46.5082 97.19ZM47.1732 95.366C47.9206 95.366 48.5222 95.1063 48.9782 94.587C49.4342 94.055 49.6622 93.257 49.6622 92.193C49.6622 91.129 49.4342 90.3373 48.9782 89.818C48.5222 89.2987 47.9206 89.039 47.1732 89.039C46.4259 89.039 45.8242 89.2987 45.3682 89.818C44.9122 90.3373 44.6842 91.129 44.6842 92.193C44.6842 93.257 44.9059 94.055 45.3492 94.587C45.8052 95.1063 46.4132 95.366 47.1732 95.366ZM54.5855 97V83.016H56.9605V97H54.5855ZM59.5396 97V87.405H61.9146V97H59.5396ZM59.4066 85.6V83.282H62.0476V85.6H59.4066ZM68.2177 97.19C67.3817 97.19 66.6407 96.9937 65.9947 96.601C65.3613 96.1957 64.8673 95.6193 64.5127 94.872C64.158 94.1247 63.9807 93.2317 63.9807 92.193C63.9807 91.1543 64.158 90.2677 64.5127 89.533C64.8673 88.7857 65.3613 88.2157 65.9947 87.823C66.6407 87.4177 67.3817 87.215 68.2177 87.215C69.0157 87.215 69.7187 87.4113 70.3267 87.804C70.9473 88.184 71.359 88.7033 71.5617 89.362H71.3147V83.016H73.6897V97H71.3527V94.967H71.5807C71.378 95.651 70.9663 96.1957 70.3457 96.601C69.7377 96.9937 69.0283 97.19 68.2177 97.19ZM68.8827 95.366C69.63 95.366 70.2317 95.1063 70.6877 94.587C71.1437 94.055 71.3717 93.257 71.3717 92.193C71.3717 91.129 71.1437 90.3373 70.6877 89.818C70.2317 89.2987 69.63 89.039 68.8827 89.039C68.1353 89.039 67.5273 89.2987 67.0587 89.818C66.6027 90.3373 66.3747 91.129 66.3747 92.193C66.3747 93.257 66.6027 94.055 67.0587 94.587C67.5273 95.1063 68.1353 95.366 68.8827 95.366ZM80.9119 97.19C79.3032 97.19 78.0429 96.7467 77.1309 95.86C76.2189 94.9733 75.7629 93.7573 75.7629 92.212C75.7629 91.2113 75.9592 90.3373 76.3519 89.59C76.7446 88.8427 77.2892 88.26 77.9859 87.842C78.6952 87.424 79.5186 87.215 80.4559 87.215C81.3806 87.215 82.1532 87.4113 82.7739 87.804C83.3946 88.1967 83.8632 88.7477 84.1799 89.457C84.5092 90.1663 84.6739 90.996 84.6739 91.946V92.573H77.6819V91.319H82.9829L82.6599 91.585C82.6599 90.6983 82.4699 90.0207 82.0899 89.552C81.7226 89.0833 81.1842 88.849 80.4749 88.849C79.6896 88.849 79.0816 89.1277 78.6509 89.685C78.2329 90.2423 78.0239 91.0213 78.0239 92.022V92.269C78.0239 93.3077 78.2772 94.0867 78.7839 94.606C79.3032 95.1127 80.0316 95.366 80.9689 95.366C81.5136 95.366 82.0202 95.2963 82.4889 95.157C82.9702 95.005 83.4262 94.7643 83.8569 94.435L84.5599 96.031C84.1039 96.3983 83.5592 96.6833 82.9259 96.886C82.2926 97.0887 81.6212 97.19 80.9119 97.19Z" fill="white"/>
<defs>
<filter id="filter0_d_61_37" x="11" y="10" width="78" height="78" filterUnits="userSpaceOnUse" color-interpolation-filters="sRGB">
<feFlood flood-opacity="0" result="BackgroundImageFix"/>
<feColorMatrix in="SourceAlpha" type="matrix" values="0 0 0 0 0 0 0 0 0 0 0 0 0 0 0 0 0 0 127 0" result="hardAlpha"/>
<feOffset dy="4"/>
<feGaussianBlur stdDeviation="2"/>
<feColorMatrix type="matrix" values="0 0 0 0 0 0 0 0 0 0 0 0 0 0 0 0 0 0 0.25 0"/>
<feBlend mode="normal" in2="BackgroundImageFix" result="effect1_dropShadow_61_37"/>
<feBlend mode="normal" in="SourceGraphic" in2="effect1_dropShadow_61_37" result="shape"/>
</filter>
</defs>
</svg>
