<svg width="100" height="100" viewBox="0 0 100 100" fill="none" xmlns="http://www.w3.org/2000/svg">
<g clip-path="url(#clip0_1715_128)">
<path d="M27.5 42.5H42.5V27.5H27.5V42.5ZM30 30H40V40H30V30ZM32.5 32.5H37.5V37.5H32.5V32.5ZM57.5 42.5H72.5V27.5H57.5V42.5ZM60 30H70V40H60V30ZM62.5 32.5H67.5V37.5H62.5V32.5ZM27.5 72.5H42.5V57.5H27.5V72.5ZM30 60H40V70H30V60ZM32.5 62.5H37.5V67.5H32.5V62.5ZM70 67.5H72.5V72.5H67.5V65H70V67.5ZM70 60H72.5V62.5H70V60ZM70 57.5V60H67.5V57.5H70ZM45 62.5H47.5V72.5H45V62.5ZM35 45V50H30V47.5H27.5V45H35ZM45 37.5H47.5V40H45V37.5ZM52.5 30V35H50V27.5H55V30H52.5ZM45 30H47.5V32.5H45V30ZM70 50H72.5V55H67.5V52.5H70V50ZM67.5 45V47.5H62.5V52.5H57.5V50H60V45H67.5ZM50 55H47.5V52.5H45V50H50V55ZM65 60H67.5V62.5H65V60ZM70 47.5V50H67.5V47.5H70ZM47.5 55V57.5H45V55H47.5ZM62.5 67.5H65V72.5H60V67.5H62.5ZM55 67.5H57.5V70H55V72.5H50V70H52.5V67.5H55ZM55 65V62.5H60V65H55ZM55 52.5H57.5V60H55V62.5H52.5V65H50V60H47.5V57.5H55V55H52.5V52.5H55ZM32.5 52.5V55H30V52.5H32.5ZM62.5 62.5H60V60H62.5V62.5ZM65 57.5H60V55H65V57.5ZM40 45H42.5V47.5H40V50H42.5V55H40V52.5H37.5V55H35V50H37.5V45H40ZM47.5 45V40H55V47.5H50V45H52.5V42.5H50V45H47.5ZM47.5 35H50V37.5H47.5V35ZM45 45H47.5V47.5H45V45ZM52.5 37.5V35H55V37.5H52.5Z" fill="white"/>
</g>
<circle cx="50" cy="50" r="40" stroke="white" stroke-width="10"/>
<defs>
<clipPath id="clip0_1715_128">
<rect width="60" height="60" fill="white" transform="translate(20 20)"/>
</clipPath>
</defs>
</svg>
